<mxfile host="app.diagrams.net" modified="2024-05-13T19:36:14.466Z" agent="Mozilla/5.0 (Windows NT 10.0; Win64; x64) AppleWebKit/537.36 (KHTML, like Gecko) Chrome/124.0.0.0 Safari/537.36" etag="3dXczaTS9M5qw5WXtvln" version="24.4.0" type="device">
  <diagram name="Pagina-1" id="EeWjdqmGI7vX8Q4pnhSJ">
    <mxGraphModel dx="2876" dy="1201" grid="1" gridSize="10" guides="1" tooltips="1" connect="1" arrows="1" fold="1" page="1" pageScale="1" pageWidth="827" pageHeight="1169" math="0" shadow="0">
      <root>
        <mxCell id="0" />
        <mxCell id="1" parent="0" />
        <mxCell id="5dmT34geTn2vT_JNvffS-1" value="Numeri binari relativi" style="text;html=1;align=center;verticalAlign=middle;whiteSpace=wrap;rounded=0;fontSize=30;" vertex="1" parent="1">
          <mxGeometry x="430.13" y="20" width="386.25" height="60" as="geometry" />
        </mxCell>
        <mxCell id="5dmT34geTn2vT_JNvffS-10" style="edgeStyle=orthogonalEdgeStyle;rounded=0;orthogonalLoop=1;jettySize=auto;html=1;entryX=0.5;entryY=0;entryDx=0;entryDy=0;" edge="1" parent="1" source="5dmT34geTn2vT_JNvffS-5" target="5dmT34geTn2vT_JNvffS-8">
          <mxGeometry relative="1" as="geometry" />
        </mxCell>
        <mxCell id="5dmT34geTn2vT_JNvffS-5" value="Modulo e Segno" style="rounded=0;whiteSpace=wrap;html=1;" vertex="1" parent="1">
          <mxGeometry x="-109.99" y="140" width="110" height="30" as="geometry" />
        </mxCell>
        <mxCell id="5dmT34geTn2vT_JNvffS-8" value="Si utilizza il bit piu&#39; a sinistra (l&#39;MSB - Most Significant bit) per codificare il segno del numero intero." style="rounded=0;whiteSpace=wrap;html=1;align=center;horizontal=1;verticalAlign=top;" vertex="1" parent="1">
          <mxGeometry x="-212.01" y="210" width="314.04" height="40" as="geometry" />
        </mxCell>
        <mxCell id="5dmT34geTn2vT_JNvffS-11" value="&lt;font style=&quot;font-size: 12px;&quot;&gt;&lt;font style=&quot;font-size: 12px;&quot; color=&quot;#ff66b3&quot;&gt;&lt;b style=&quot;&quot;&gt;1&lt;/b&gt;&lt;/font&gt; al segno meno ( &lt;b&gt;-&lt;/b&gt; )&lt;/font&gt;" style="rounded=0;whiteSpace=wrap;html=1;" vertex="1" parent="1">
          <mxGeometry x="-40" y="315" width="120" height="30" as="geometry" />
        </mxCell>
        <mxCell id="5dmT34geTn2vT_JNvffS-12" value="&lt;font style=&quot;font-size: 13px;&quot;&gt;&lt;b&gt;&lt;font style=&quot;font-size: 13px;&quot; color=&quot;#ff66b3&quot;&gt;0&lt;/font&gt; &lt;/b&gt;al segno piu&#39; ( &lt;b&gt;+&lt;/b&gt; )&lt;/font&gt;" style="rounded=0;whiteSpace=wrap;html=1;" vertex="1" parent="1">
          <mxGeometry x="-200" y="315" width="120" height="30" as="geometry" />
        </mxCell>
        <mxCell id="5dmT34geTn2vT_JNvffS-14" value="" style="endArrow=classic;html=1;rounded=0;" edge="1" parent="1">
          <mxGeometry width="50" height="50" relative="1" as="geometry">
            <mxPoint x="-140" y="290" as="sourcePoint" />
            <mxPoint x="-140" y="315" as="targetPoint" />
            <Array as="points">
              <mxPoint x="-140" y="315" />
            </Array>
          </mxGeometry>
        </mxCell>
        <mxCell id="5dmT34geTn2vT_JNvffS-15" value="" style="endArrow=classic;html=1;rounded=0;entryX=0.5;entryY=0;entryDx=0;entryDy=0;" edge="1" parent="1">
          <mxGeometry width="50" height="50" relative="1" as="geometry">
            <mxPoint x="20" y="290" as="sourcePoint" />
            <mxPoint x="20" y="315" as="targetPoint" />
          </mxGeometry>
        </mxCell>
        <mxCell id="5dmT34geTn2vT_JNvffS-16" value="" style="endArrow=none;html=1;rounded=0;" edge="1" parent="1">
          <mxGeometry width="50" height="50" relative="1" as="geometry">
            <mxPoint x="-140" y="290" as="sourcePoint" />
            <mxPoint x="20" y="290" as="targetPoint" />
          </mxGeometry>
        </mxCell>
        <mxCell id="5dmT34geTn2vT_JNvffS-17" value="" style="endArrow=none;html=1;rounded=0;entryX=0.5;entryY=1;entryDx=0;entryDy=0;" edge="1" parent="1" target="5dmT34geTn2vT_JNvffS-8">
          <mxGeometry width="50" height="50" relative="1" as="geometry">
            <mxPoint x="-54.75" y="290" as="sourcePoint" />
            <mxPoint x="-55.25" y="260" as="targetPoint" />
          </mxGeometry>
        </mxCell>
        <mxCell id="5dmT34geTn2vT_JNvffS-20" value="Caratteristiche" style="swimlane;fontStyle=0;childLayout=stackLayout;horizontal=1;startSize=30;horizontalStack=0;resizeParent=1;resizeParentMax=0;resizeLast=0;collapsible=1;marginBottom=0;whiteSpace=wrap;html=1;" vertex="1" parent="1">
          <mxGeometry x="-174.99" y="440" width="230" height="150" as="geometry" />
        </mxCell>
        <mxCell id="5dmT34geTn2vT_JNvffS-23" value="Intervallo simmetrico (-3,-2,-1,-0,0,1,2,3)" style="text;strokeColor=none;fillColor=none;align=left;verticalAlign=middle;spacingLeft=4;spacingRight=4;overflow=hidden;points=[[0,0.5],[1,0.5]];portConstraint=eastwest;rotatable=0;whiteSpace=wrap;html=1;" vertex="1" parent="5dmT34geTn2vT_JNvffS-20">
          <mxGeometry y="30" width="230" height="30" as="geometry" />
        </mxCell>
        <mxCell id="5dmT34geTn2vT_JNvffS-21" value="Doppia rappresentazione dello zero &lt;br&gt;(-0, 0)" style="text;strokeColor=none;fillColor=none;align=left;verticalAlign=middle;spacingLeft=4;spacingRight=4;overflow=hidden;points=[[0,0.5],[1,0.5]];portConstraint=eastwest;rotatable=0;whiteSpace=wrap;html=1;" vertex="1" parent="5dmT34geTn2vT_JNvffS-20">
          <mxGeometry y="60" width="230" height="30" as="geometry" />
        </mxCell>
        <mxCell id="5dmT34geTn2vT_JNvffS-22" value="Difficolta&#39; nelle operazioni elementari ( + )" style="text;strokeColor=none;fillColor=none;align=left;verticalAlign=middle;spacingLeft=4;spacingRight=4;overflow=hidden;points=[[0,0.5],[1,0.5]];portConstraint=eastwest;rotatable=0;whiteSpace=wrap;html=1;" vertex="1" parent="5dmT34geTn2vT_JNvffS-20">
          <mxGeometry y="90" width="230" height="30" as="geometry" />
        </mxCell>
        <mxCell id="5dmT34geTn2vT_JNvffS-25" value="Non viene utilizzata quando e&#39; necessario fare calcoli matematici" style="text;strokeColor=none;fillColor=none;align=left;verticalAlign=middle;spacingLeft=4;spacingRight=4;overflow=hidden;points=[[0,0.5],[1,0.5]];portConstraint=eastwest;rotatable=0;whiteSpace=wrap;html=1;" vertex="1" parent="5dmT34geTn2vT_JNvffS-20">
          <mxGeometry y="120" width="230" height="30" as="geometry" />
        </mxCell>
        <mxCell id="5dmT34geTn2vT_JNvffS-30" value="Addendi concordi" style="rounded=0;whiteSpace=wrap;html=1;" vertex="1" parent="1">
          <mxGeometry x="-715" y="530" width="110" height="30" as="geometry" />
        </mxCell>
        <mxCell id="5dmT34geTn2vT_JNvffS-32" value="Addendi discordi" style="rounded=0;whiteSpace=wrap;html=1;" vertex="1" parent="1">
          <mxGeometry x="-485" y="530" width="110" height="30" as="geometry" />
        </mxCell>
        <mxCell id="5dmT34geTn2vT_JNvffS-33" value="Semplice somma&lt;div&gt;(con possibile overflow)&amp;nbsp;&lt;/div&gt;" style="rounded=0;whiteSpace=wrap;html=1;verticalAlign=top;align=center;" vertex="1" parent="1">
          <mxGeometry x="-730" y="580" width="140" height="40" as="geometry" />
        </mxCell>
        <mxCell id="5dmT34geTn2vT_JNvffS-34" value="L&#39;addendo di modulo maggiore diventa negativo e si esegue la somma come una sottrazione&amp;nbsp;&lt;div&gt;(prima il numero con valore assoluto maggiore)&amp;nbsp;&lt;/div&gt;" style="rounded=0;whiteSpace=wrap;html=1;verticalAlign=top;align=left;" vertex="1" parent="1">
          <mxGeometry x="-560" y="580" width="260" height="80" as="geometry" />
        </mxCell>
        <mxCell id="5dmT34geTn2vT_JNvffS-26" style="edgeStyle=orthogonalEdgeStyle;rounded=0;orthogonalLoop=1;jettySize=auto;html=1;" edge="1" parent="1">
          <mxGeometry relative="1" as="geometry">
            <mxPoint x="-325" y="544.5799999999999" as="targetPoint" />
            <mxPoint x="-174.99" y="544.6144827586206" as="sourcePoint" />
          </mxGeometry>
        </mxCell>
        <mxCell id="5dmT34geTn2vT_JNvffS-36" value="&amp;nbsp;&lt;font color=&quot;#ff66b3&quot; style=&quot;font-size: 19px;&quot;&gt;0&lt;/font&gt;1111=(+15) |&amp;nbsp;&lt;font color=&quot;#ff66b3&quot; style=&quot;font-size: 19px;&quot;&gt;1&lt;/font&gt;1111=(-15)" style="text;html=1;align=center;verticalAlign=middle;whiteSpace=wrap;rounded=0;fontSize=19;" vertex="1" parent="1">
          <mxGeometry x="-192.48" y="370" width="274.99" height="40" as="geometry" />
        </mxCell>
        <mxCell id="5dmT34geTn2vT_JNvffS-147" style="edgeStyle=orthogonalEdgeStyle;rounded=0;orthogonalLoop=1;jettySize=auto;html=1;entryX=0.5;entryY=0;entryDx=0;entryDy=0;" edge="1" parent="1" source="5dmT34geTn2vT_JNvffS-37" target="5dmT34geTn2vT_JNvffS-44">
          <mxGeometry relative="1" as="geometry">
            <Array as="points">
              <mxPoint x="623" y="180" />
              <mxPoint x="371" y="180" />
            </Array>
          </mxGeometry>
        </mxCell>
        <mxCell id="5dmT34geTn2vT_JNvffS-148" style="edgeStyle=orthogonalEdgeStyle;rounded=0;orthogonalLoop=1;jettySize=auto;html=1;entryX=0.5;entryY=0;entryDx=0;entryDy=0;" edge="1" parent="1" source="5dmT34geTn2vT_JNvffS-37" target="5dmT34geTn2vT_JNvffS-45">
          <mxGeometry relative="1" as="geometry">
            <Array as="points">
              <mxPoint x="623" y="180" />
              <mxPoint x="869" y="180" />
            </Array>
          </mxGeometry>
        </mxCell>
        <mxCell id="5dmT34geTn2vT_JNvffS-37" value="Complemento alla base" style="rounded=0;whiteSpace=wrap;html=1;" vertex="1" parent="1">
          <mxGeometry x="550" y="130" width="146.5" height="30" as="geometry" />
        </mxCell>
        <mxCell id="5dmT34geTn2vT_JNvffS-44" value="Complemento a 1" style="rounded=0;whiteSpace=wrap;html=1;" vertex="1" parent="1">
          <mxGeometry x="321" y="200" width="100" height="30" as="geometry" />
        </mxCell>
        <mxCell id="5dmT34geTn2vT_JNvffS-45" value="Complemento a 2" style="rounded=0;whiteSpace=wrap;html=1;" vertex="1" parent="1">
          <mxGeometry x="815" y="200" width="107" height="30" as="geometry" />
        </mxCell>
        <mxCell id="5dmT34geTn2vT_JNvffS-46" value="5 = 00101&amp;nbsp;" style="text;html=1;align=center;verticalAlign=middle;whiteSpace=wrap;rounded=0;" vertex="1" parent="1">
          <mxGeometry x="264.75" y="527.5" width="69" height="20" as="geometry" />
        </mxCell>
        <mxCell id="5dmT34geTn2vT_JNvffS-47" value="" style="endArrow=classic;html=1;rounded=0;exitX=1;exitY=0.5;exitDx=0;exitDy=0;" edge="1" parent="1" source="5dmT34geTn2vT_JNvffS-46">
          <mxGeometry width="50" height="50" relative="1" as="geometry">
            <mxPoint x="312.75" y="587.5" as="sourcePoint" />
            <mxPoint x="352.75" y="537.5" as="targetPoint" />
          </mxGeometry>
        </mxCell>
        <mxCell id="5dmT34geTn2vT_JNvffS-48" value="comp1(00101) = 11010" style="text;html=1;align=center;verticalAlign=middle;whiteSpace=wrap;rounded=0;" vertex="1" parent="1">
          <mxGeometry x="352.75" y="527.5" width="131" height="20" as="geometry" />
        </mxCell>
        <mxCell id="5dmT34geTn2vT_JNvffS-65" style="edgeStyle=orthogonalEdgeStyle;rounded=0;orthogonalLoop=1;jettySize=auto;html=1;entryX=0;entryY=0.5;entryDx=0;entryDy=0;" edge="1" parent="1" source="5dmT34geTn2vT_JNvffS-49" target="5dmT34geTn2vT_JNvffS-63">
          <mxGeometry relative="1" as="geometry">
            <mxPoint x="352.75" y="682.5" as="targetPoint" />
          </mxGeometry>
        </mxCell>
        <mxCell id="5dmT34geTn2vT_JNvffS-49" value="Positivi" style="swimlane;fontStyle=0;childLayout=stackLayout;horizontal=1;startSize=30;horizontalStack=0;resizeParent=1;resizeParentMax=0;resizeLast=0;collapsible=1;marginBottom=0;whiteSpace=wrap;html=1;" vertex="1" parent="1">
          <mxGeometry x="223.75" y="577.5" width="100" height="210" as="geometry" />
        </mxCell>
        <mxCell id="5dmT34geTn2vT_JNvffS-50" value="01111 (15)" style="text;strokeColor=none;fillColor=none;align=left;verticalAlign=middle;spacingLeft=4;spacingRight=4;overflow=hidden;points=[[0,0.5],[1,0.5]];portConstraint=eastwest;rotatable=0;whiteSpace=wrap;html=1;" vertex="1" parent="5dmT34geTn2vT_JNvffS-49">
          <mxGeometry y="30" width="100" height="30" as="geometry" />
        </mxCell>
        <mxCell id="5dmT34geTn2vT_JNvffS-51" value="01110 (14)" style="text;strokeColor=none;fillColor=none;align=left;verticalAlign=middle;spacingLeft=4;spacingRight=4;overflow=hidden;points=[[0,0.5],[1,0.5]];portConstraint=eastwest;rotatable=0;whiteSpace=wrap;html=1;" vertex="1" parent="5dmT34geTn2vT_JNvffS-49">
          <mxGeometry y="60" width="100" height="30" as="geometry" />
        </mxCell>
        <mxCell id="5dmT34geTn2vT_JNvffS-52" value=".......... (...)" style="text;strokeColor=none;fillColor=none;align=left;verticalAlign=middle;spacingLeft=4;spacingRight=4;overflow=hidden;points=[[0,0.5],[1,0.5]];portConstraint=eastwest;rotatable=0;whiteSpace=wrap;html=1;" vertex="1" parent="5dmT34geTn2vT_JNvffS-49">
          <mxGeometry y="90" width="100" height="30" as="geometry" />
        </mxCell>
        <mxCell id="5dmT34geTn2vT_JNvffS-53" value="00010 (2)" style="text;strokeColor=none;fillColor=none;align=left;verticalAlign=middle;spacingLeft=4;spacingRight=4;overflow=hidden;points=[[0,0.5],[1,0.5]];portConstraint=eastwest;rotatable=0;whiteSpace=wrap;html=1;" vertex="1" parent="5dmT34geTn2vT_JNvffS-49">
          <mxGeometry y="120" width="100" height="30" as="geometry" />
        </mxCell>
        <mxCell id="5dmT34geTn2vT_JNvffS-54" value="00001 (1)" style="text;strokeColor=none;fillColor=none;align=left;verticalAlign=middle;spacingLeft=4;spacingRight=4;overflow=hidden;points=[[0,0.5],[1,0.5]];portConstraint=eastwest;rotatable=0;whiteSpace=wrap;html=1;" vertex="1" parent="5dmT34geTn2vT_JNvffS-49">
          <mxGeometry y="150" width="100" height="30" as="geometry" />
        </mxCell>
        <mxCell id="5dmT34geTn2vT_JNvffS-55" value="00000 (0)" style="text;strokeColor=none;fillColor=none;align=left;verticalAlign=middle;spacingLeft=4;spacingRight=4;overflow=hidden;points=[[0,0.5],[1,0.5]];portConstraint=eastwest;rotatable=0;whiteSpace=wrap;html=1;" vertex="1" parent="5dmT34geTn2vT_JNvffS-49">
          <mxGeometry y="180" width="100" height="30" as="geometry" />
        </mxCell>
        <mxCell id="5dmT34geTn2vT_JNvffS-56" value="Negativi" style="swimlane;fontStyle=0;childLayout=stackLayout;horizontal=1;startSize=30;horizontalStack=0;resizeParent=1;resizeParentMax=0;resizeLast=0;collapsible=1;marginBottom=0;whiteSpace=wrap;html=1;" vertex="1" parent="1">
          <mxGeometry x="423.75" y="577.5" width="100" height="210" as="geometry" />
        </mxCell>
        <mxCell id="5dmT34geTn2vT_JNvffS-57" value="10000 (-15)" style="text;strokeColor=none;fillColor=none;align=left;verticalAlign=middle;spacingLeft=4;spacingRight=4;overflow=hidden;points=[[0,0.5],[1,0.5]];portConstraint=eastwest;rotatable=0;whiteSpace=wrap;html=1;" vertex="1" parent="5dmT34geTn2vT_JNvffS-56">
          <mxGeometry y="30" width="100" height="30" as="geometry" />
        </mxCell>
        <mxCell id="5dmT34geTn2vT_JNvffS-58" value="10001 (-14)" style="text;strokeColor=none;fillColor=none;align=left;verticalAlign=middle;spacingLeft=4;spacingRight=4;overflow=hidden;points=[[0,0.5],[1,0.5]];portConstraint=eastwest;rotatable=0;whiteSpace=wrap;html=1;" vertex="1" parent="5dmT34geTn2vT_JNvffS-56">
          <mxGeometry y="60" width="100" height="30" as="geometry" />
        </mxCell>
        <mxCell id="5dmT34geTn2vT_JNvffS-59" value=".......... (-...)" style="text;strokeColor=none;fillColor=none;align=left;verticalAlign=middle;spacingLeft=4;spacingRight=4;overflow=hidden;points=[[0,0.5],[1,0.5]];portConstraint=eastwest;rotatable=0;whiteSpace=wrap;html=1;" vertex="1" parent="5dmT34geTn2vT_JNvffS-56">
          <mxGeometry y="90" width="100" height="30" as="geometry" />
        </mxCell>
        <mxCell id="5dmT34geTn2vT_JNvffS-60" value="11101 (-2)" style="text;strokeColor=none;fillColor=none;align=left;verticalAlign=middle;spacingLeft=4;spacingRight=4;overflow=hidden;points=[[0,0.5],[1,0.5]];portConstraint=eastwest;rotatable=0;whiteSpace=wrap;html=1;" vertex="1" parent="5dmT34geTn2vT_JNvffS-56">
          <mxGeometry y="120" width="100" height="30" as="geometry" />
        </mxCell>
        <mxCell id="5dmT34geTn2vT_JNvffS-61" value="11110 (-1)" style="text;strokeColor=none;fillColor=none;align=left;verticalAlign=middle;spacingLeft=4;spacingRight=4;overflow=hidden;points=[[0,0.5],[1,0.5]];portConstraint=eastwest;rotatable=0;whiteSpace=wrap;html=1;" vertex="1" parent="5dmT34geTn2vT_JNvffS-56">
          <mxGeometry y="150" width="100" height="30" as="geometry" />
        </mxCell>
        <mxCell id="5dmT34geTn2vT_JNvffS-62" value="11111 (-0)" style="text;strokeColor=none;fillColor=none;align=left;verticalAlign=middle;spacingLeft=4;spacingRight=4;overflow=hidden;points=[[0,0.5],[1,0.5]];portConstraint=eastwest;rotatable=0;whiteSpace=wrap;html=1;" vertex="1" parent="5dmT34geTn2vT_JNvffS-56">
          <mxGeometry y="180" width="100" height="30" as="geometry" />
        </mxCell>
        <mxCell id="5dmT34geTn2vT_JNvffS-67" style="edgeStyle=orthogonalEdgeStyle;rounded=0;orthogonalLoop=1;jettySize=auto;html=1;" edge="1" parent="1">
          <mxGeometry relative="1" as="geometry">
            <mxPoint x="422.75" y="682.5" as="targetPoint" />
            <mxPoint x="402.75" y="682.5" as="sourcePoint" />
          </mxGeometry>
        </mxCell>
        <mxCell id="5dmT34geTn2vT_JNvffS-63" value="comp a 1" style="text;html=1;align=center;verticalAlign=middle;whiteSpace=wrap;rounded=0;" vertex="1" parent="1">
          <mxGeometry x="347.25" y="672.5" width="54" height="20" as="geometry" />
        </mxCell>
        <mxCell id="5dmT34geTn2vT_JNvffS-74" value="" style="shape=ellipse;fillColor=#000000;strokeColor=none;html=1;sketch=0;fontColor=#000000;" vertex="1" parent="1">
          <mxGeometry x="223.75" y="442.5" width="10" height="10" as="geometry" />
        </mxCell>
        <mxCell id="5dmT34geTn2vT_JNvffS-76" value="Codifichiamo i primi 16 numeri naturali" style="text;html=1;align=center;verticalAlign=middle;whiteSpace=wrap;rounded=0;" vertex="1" parent="1">
          <mxGeometry x="239.75" y="440" width="214" height="15" as="geometry" />
        </mxCell>
        <mxCell id="5dmT34geTn2vT_JNvffS-77" value="" style="shape=ellipse;fillColor=#000000;strokeColor=none;html=1;sketch=0;fontColor=#000000;" vertex="1" parent="1">
          <mxGeometry x="223.75" y="472.5" width="10" height="10" as="geometry" />
        </mxCell>
        <mxCell id="5dmT34geTn2vT_JNvffS-78" value="Aggiungiamo uno 0 a sinistra e otteniamo i numeri positivi" style="text;html=1;align=left;verticalAlign=middle;whiteSpace=wrap;rounded=0;" vertex="1" parent="1">
          <mxGeometry x="239.75" y="470" width="318" height="15" as="geometry" />
        </mxCell>
        <mxCell id="5dmT34geTn2vT_JNvffS-80" value="" style="endArrow=classic;html=1;rounded=0;" edge="1" parent="1">
          <mxGeometry width="50" height="50" relative="1" as="geometry">
            <mxPoint x="172.75" y="587.5" as="sourcePoint" />
            <mxPoint x="222.75" y="587.5" as="targetPoint" />
          </mxGeometry>
        </mxCell>
        <mxCell id="5dmT34geTn2vT_JNvffS-81" value="" style="endArrow=none;html=1;rounded=0;" edge="1" parent="1">
          <mxGeometry width="50" height="50" relative="1" as="geometry">
            <mxPoint x="172.75" y="587.5" as="sourcePoint" />
            <mxPoint x="172.75" y="477.5" as="targetPoint" />
          </mxGeometry>
        </mxCell>
        <mxCell id="5dmT34geTn2vT_JNvffS-82" value="" style="endArrow=none;html=1;rounded=0;" edge="1" parent="1">
          <mxGeometry width="50" height="50" relative="1" as="geometry">
            <mxPoint x="172.75" y="477.21000000000004" as="sourcePoint" />
            <mxPoint x="222.75" y="477.5" as="targetPoint" />
          </mxGeometry>
        </mxCell>
        <mxCell id="5dmT34geTn2vT_JNvffS-92" style="edgeStyle=orthogonalEdgeStyle;rounded=0;orthogonalLoop=1;jettySize=auto;html=1;" edge="1" parent="1">
          <mxGeometry relative="1" as="geometry">
            <mxPoint x="423.75" y="587.5" as="targetPoint" />
            <mxPoint x="224.75000000000023" y="509.98275862068965" as="sourcePoint" />
            <Array as="points">
              <mxPoint x="203.75" y="509.5" />
              <mxPoint x="203.75" y="567.5" />
              <mxPoint x="332.75" y="567.5" />
              <mxPoint x="332.75" y="587.5" />
            </Array>
          </mxGeometry>
        </mxCell>
        <mxCell id="5dmT34geTn2vT_JNvffS-83" value="" style="shape=ellipse;fillColor=#000000;strokeColor=none;html=1;sketch=0;fontColor=#000000;" vertex="1" parent="1">
          <mxGeometry x="223.75" y="505" width="10" height="10" as="geometry" />
        </mxCell>
        <mxCell id="5dmT34geTn2vT_JNvffS-84" value="Otteniamo i numeri negativi complementando a 1 i numeri positivi" style="text;html=1;align=center;verticalAlign=middle;whiteSpace=wrap;rounded=0;" vertex="1" parent="1">
          <mxGeometry x="233.75" y="502.5" width="359" height="15" as="geometry" />
        </mxCell>
        <mxCell id="5dmT34geTn2vT_JNvffS-93" value="Caratteristiche" style="swimlane;fontStyle=0;childLayout=stackLayout;horizontal=1;startSize=30;horizontalStack=0;resizeParent=1;resizeParentMax=0;resizeLast=0;collapsible=1;marginBottom=0;whiteSpace=wrap;html=1;" vertex="1" parent="1">
          <mxGeometry x="222.25" y="860" width="301.5" height="120" as="geometry" />
        </mxCell>
        <mxCell id="5dmT34geTn2vT_JNvffS-94" value="Numeri positivi hanno l&#39;MSB a 0, quelli negativi 1" style="text;strokeColor=none;fillColor=none;align=left;verticalAlign=middle;spacingLeft=4;spacingRight=4;overflow=hidden;points=[[0,0.5],[1,0.5]];portConstraint=eastwest;rotatable=0;whiteSpace=wrap;html=1;" vertex="1" parent="5dmT34geTn2vT_JNvffS-93">
          <mxGeometry y="30" width="301.5" height="30" as="geometry" />
        </mxCell>
        <mxCell id="5dmT34geTn2vT_JNvffS-98" value="Intervallo: [-2&lt;sup&gt;n-1&lt;/sup&gt; + 1,+2&lt;sup&gt;n-1&lt;/sup&gt; - 1]" style="text;strokeColor=none;fillColor=none;align=left;verticalAlign=middle;spacingLeft=4;spacingRight=4;overflow=hidden;points=[[0,0.5],[1,0.5]];portConstraint=eastwest;rotatable=0;whiteSpace=wrap;html=1;" vertex="1" parent="5dmT34geTn2vT_JNvffS-93">
          <mxGeometry y="60" width="301.5" height="30" as="geometry" />
        </mxCell>
        <mxCell id="5dmT34geTn2vT_JNvffS-97" value="Doppia rappresentazione dello zero" style="text;strokeColor=none;fillColor=none;align=left;verticalAlign=middle;spacingLeft=4;spacingRight=4;overflow=hidden;points=[[0,0.5],[1,0.5]];portConstraint=eastwest;rotatable=0;whiteSpace=wrap;html=1;" vertex="1" parent="5dmT34geTn2vT_JNvffS-93">
          <mxGeometry y="90" width="301.5" height="30" as="geometry" />
        </mxCell>
        <mxCell id="5dmT34geTn2vT_JNvffS-101" value="comp2(00101) = comp1(00101) + 00001" style="text;html=1;align=left;verticalAlign=middle;whiteSpace=wrap;rounded=0;" vertex="1" parent="1">
          <mxGeometry x="745.25" y="525" width="230" height="25" as="geometry" />
        </mxCell>
        <mxCell id="5dmT34geTn2vT_JNvffS-102" value="&lt;span style=&quot;text-align: left;&quot;&gt;11011&amp;nbsp; =&amp;nbsp;&lt;/span&gt;&lt;span style=&quot;text-align: left; background-color: initial;&quot;&gt;&amp;nbsp;&lt;/span&gt;" style="text;html=1;align=center;verticalAlign=middle;whiteSpace=wrap;rounded=0;" vertex="1" parent="1">
          <mxGeometry x="781.75" y="575" width="66.5" height="17.5" as="geometry" />
        </mxCell>
        <mxCell id="5dmT34geTn2vT_JNvffS-104" value="" style="endArrow=classic;html=1;rounded=0;exitX=1;exitY=0.5;exitDx=0;exitDy=0;" edge="1" parent="1">
          <mxGeometry width="50" height="50" relative="1" as="geometry">
            <mxPoint x="802.2499999999998" y="550" as="sourcePoint" />
            <mxPoint x="802.25" y="570" as="targetPoint" />
            <Array as="points">
              <mxPoint x="802.25" y="570" />
            </Array>
          </mxGeometry>
        </mxCell>
        <mxCell id="5dmT34geTn2vT_JNvffS-105" value="" style="endArrow=classic;html=1;rounded=0;exitX=1;exitY=0.5;exitDx=0;exitDy=0;" edge="1" parent="1">
          <mxGeometry width="50" height="50" relative="1" as="geometry">
            <mxPoint x="878.2499999999998" y="550" as="sourcePoint" />
            <mxPoint x="878.25" y="570" as="targetPoint" />
            <Array as="points">
              <mxPoint x="878.25" y="570" />
            </Array>
          </mxGeometry>
        </mxCell>
        <mxCell id="5dmT34geTn2vT_JNvffS-106" value="" style="endArrow=classic;html=1;rounded=0;exitX=1;exitY=0.5;exitDx=0;exitDy=0;" edge="1" parent="1">
          <mxGeometry width="50" height="50" relative="1" as="geometry">
            <mxPoint x="945.2499999999998" y="550" as="sourcePoint" />
            <mxPoint x="945.25" y="570" as="targetPoint" />
            <Array as="points">
              <mxPoint x="945.25" y="570" />
            </Array>
          </mxGeometry>
        </mxCell>
        <mxCell id="5dmT34geTn2vT_JNvffS-107" value="&lt;span style=&quot;color: rgb(0, 0, 0); font-family: Helvetica; font-size: 12px; font-style: normal; font-variant-ligatures: normal; font-variant-caps: normal; font-weight: 400; letter-spacing: normal; orphans: 2; text-indent: 0px; text-transform: none; widows: 2; word-spacing: 0px; -webkit-text-stroke-width: 0px; white-space: normal; background-color: rgb(251, 251, 251); text-decoration-thickness: initial; text-decoration-style: initial; text-decoration-color: initial; float: none; display: inline !important;&quot;&gt;11010&lt;/span&gt;" style="text;whiteSpace=wrap;html=1;align=left;verticalAlign=top;horizontal=1;" vertex="1" parent="1">
          <mxGeometry x="857.25" y="570" width="40" height="27.5" as="geometry" />
        </mxCell>
        <mxCell id="5dmT34geTn2vT_JNvffS-108" value="00001" style="text;whiteSpace=wrap;html=1;" vertex="1" parent="1">
          <mxGeometry x="925.25" y="570" width="40" height="25" as="geometry" />
        </mxCell>
        <mxCell id="5dmT34geTn2vT_JNvffS-109" value="+" style="text;whiteSpace=wrap;html=1;" vertex="1" parent="1">
          <mxGeometry x="903.75" y="570" width="11.5" height="20" as="geometry" />
        </mxCell>
        <mxCell id="5dmT34geTn2vT_JNvffS-111" value="" style="shape=ellipse;fillColor=#000000;strokeColor=none;html=1;sketch=0;fontColor=#000000;" vertex="1" parent="1">
          <mxGeometry x="707.25" y="442.5" width="10" height="10" as="geometry" />
        </mxCell>
        <mxCell id="5dmT34geTn2vT_JNvffS-112" value="Codifichiamo i primi 16 numeri naturali" style="text;html=1;align=center;verticalAlign=middle;whiteSpace=wrap;rounded=0;" vertex="1" parent="1">
          <mxGeometry x="723.25" y="440" width="214" height="15" as="geometry" />
        </mxCell>
        <mxCell id="5dmT34geTn2vT_JNvffS-113" value="" style="shape=ellipse;fillColor=#000000;strokeColor=none;html=1;sketch=0;fontColor=#000000;" vertex="1" parent="1">
          <mxGeometry x="707.25" y="472.5" width="10" height="10" as="geometry" />
        </mxCell>
        <mxCell id="5dmT34geTn2vT_JNvffS-114" value="Aggiungiamo uno 0 a sinistra e otteniamo i numeri positivi" style="text;html=1;align=left;verticalAlign=middle;whiteSpace=wrap;rounded=0;" vertex="1" parent="1">
          <mxGeometry x="723.25" y="470" width="318" height="15" as="geometry" />
        </mxCell>
        <mxCell id="5dmT34geTn2vT_JNvffS-115" value="" style="shape=ellipse;fillColor=#000000;strokeColor=none;html=1;sketch=0;fontColor=#000000;" vertex="1" parent="1">
          <mxGeometry x="707.25" y="505" width="10" height="10" as="geometry" />
        </mxCell>
        <mxCell id="5dmT34geTn2vT_JNvffS-116" value="Otteniamo i numeri negativi complementando a 2 i numeri positivi" style="text;html=1;align=center;verticalAlign=middle;whiteSpace=wrap;rounded=0;" vertex="1" parent="1">
          <mxGeometry x="717.25" y="502.5" width="356.5" height="15" as="geometry" />
        </mxCell>
        <mxCell id="5dmT34geTn2vT_JNvffS-117" value="Positivi" style="swimlane;fontStyle=0;childLayout=stackLayout;horizontal=1;startSize=30;horizontalStack=0;resizeParent=1;resizeParentMax=0;resizeLast=0;collapsible=1;marginBottom=0;whiteSpace=wrap;html=1;" vertex="1" parent="1">
          <mxGeometry x="707.25" y="620" width="100" height="210" as="geometry" />
        </mxCell>
        <mxCell id="5dmT34geTn2vT_JNvffS-118" value="01111 (15)" style="text;strokeColor=none;fillColor=none;align=left;verticalAlign=middle;spacingLeft=4;spacingRight=4;overflow=hidden;points=[[0,0.5],[1,0.5]];portConstraint=eastwest;rotatable=0;whiteSpace=wrap;html=1;" vertex="1" parent="5dmT34geTn2vT_JNvffS-117">
          <mxGeometry y="30" width="100" height="30" as="geometry" />
        </mxCell>
        <mxCell id="5dmT34geTn2vT_JNvffS-119" value="01110 (14)" style="text;strokeColor=none;fillColor=none;align=left;verticalAlign=middle;spacingLeft=4;spacingRight=4;overflow=hidden;points=[[0,0.5],[1,0.5]];portConstraint=eastwest;rotatable=0;whiteSpace=wrap;html=1;" vertex="1" parent="5dmT34geTn2vT_JNvffS-117">
          <mxGeometry y="60" width="100" height="30" as="geometry" />
        </mxCell>
        <mxCell id="5dmT34geTn2vT_JNvffS-120" value=".......... (...)" style="text;strokeColor=none;fillColor=none;align=left;verticalAlign=middle;spacingLeft=4;spacingRight=4;overflow=hidden;points=[[0,0.5],[1,0.5]];portConstraint=eastwest;rotatable=0;whiteSpace=wrap;html=1;" vertex="1" parent="5dmT34geTn2vT_JNvffS-117">
          <mxGeometry y="90" width="100" height="30" as="geometry" />
        </mxCell>
        <mxCell id="5dmT34geTn2vT_JNvffS-121" value="00010 (2)" style="text;strokeColor=none;fillColor=none;align=left;verticalAlign=middle;spacingLeft=4;spacingRight=4;overflow=hidden;points=[[0,0.5],[1,0.5]];portConstraint=eastwest;rotatable=0;whiteSpace=wrap;html=1;" vertex="1" parent="5dmT34geTn2vT_JNvffS-117">
          <mxGeometry y="120" width="100" height="30" as="geometry" />
        </mxCell>
        <mxCell id="5dmT34geTn2vT_JNvffS-122" value="00001 (1)" style="text;strokeColor=none;fillColor=none;align=left;verticalAlign=middle;spacingLeft=4;spacingRight=4;overflow=hidden;points=[[0,0.5],[1,0.5]];portConstraint=eastwest;rotatable=0;whiteSpace=wrap;html=1;" vertex="1" parent="5dmT34geTn2vT_JNvffS-117">
          <mxGeometry y="150" width="100" height="30" as="geometry" />
        </mxCell>
        <mxCell id="5dmT34geTn2vT_JNvffS-123" value="00000 (0)" style="text;strokeColor=none;fillColor=none;align=left;verticalAlign=middle;spacingLeft=4;spacingRight=4;overflow=hidden;points=[[0,0.5],[1,0.5]];portConstraint=eastwest;rotatable=0;whiteSpace=wrap;html=1;" vertex="1" parent="5dmT34geTn2vT_JNvffS-117">
          <mxGeometry y="180" width="100" height="30" as="geometry" />
        </mxCell>
        <mxCell id="5dmT34geTn2vT_JNvffS-124" value="Negativi" style="swimlane;fontStyle=0;childLayout=stackLayout;horizontal=1;startSize=30;horizontalStack=0;resizeParent=1;resizeParentMax=0;resizeLast=0;collapsible=1;marginBottom=0;whiteSpace=wrap;html=1;" vertex="1" parent="1">
          <mxGeometry x="905.75" y="620" width="100" height="210" as="geometry" />
        </mxCell>
        <mxCell id="5dmT34geTn2vT_JNvffS-125" value="10000 (-16)" style="text;strokeColor=none;fillColor=none;align=left;verticalAlign=middle;spacingLeft=4;spacingRight=4;overflow=hidden;points=[[0,0.5],[1,0.5]];portConstraint=eastwest;rotatable=0;whiteSpace=wrap;html=1;" vertex="1" parent="5dmT34geTn2vT_JNvffS-124">
          <mxGeometry y="30" width="100" height="30" as="geometry" />
        </mxCell>
        <mxCell id="5dmT34geTn2vT_JNvffS-126" value="10001 (-15)" style="text;strokeColor=none;fillColor=none;align=left;verticalAlign=middle;spacingLeft=4;spacingRight=4;overflow=hidden;points=[[0,0.5],[1,0.5]];portConstraint=eastwest;rotatable=0;whiteSpace=wrap;html=1;" vertex="1" parent="5dmT34geTn2vT_JNvffS-124">
          <mxGeometry y="60" width="100" height="30" as="geometry" />
        </mxCell>
        <mxCell id="5dmT34geTn2vT_JNvffS-127" value=".......... (-...)" style="text;strokeColor=none;fillColor=none;align=left;verticalAlign=middle;spacingLeft=4;spacingRight=4;overflow=hidden;points=[[0,0.5],[1,0.5]];portConstraint=eastwest;rotatable=0;whiteSpace=wrap;html=1;" vertex="1" parent="5dmT34geTn2vT_JNvffS-124">
          <mxGeometry y="90" width="100" height="30" as="geometry" />
        </mxCell>
        <mxCell id="5dmT34geTn2vT_JNvffS-128" value="11101 (-3)" style="text;strokeColor=none;fillColor=none;align=left;verticalAlign=middle;spacingLeft=4;spacingRight=4;overflow=hidden;points=[[0,0.5],[1,0.5]];portConstraint=eastwest;rotatable=0;whiteSpace=wrap;html=1;" vertex="1" parent="5dmT34geTn2vT_JNvffS-124">
          <mxGeometry y="120" width="100" height="30" as="geometry" />
        </mxCell>
        <mxCell id="5dmT34geTn2vT_JNvffS-129" value="11110 (-2)" style="text;strokeColor=none;fillColor=none;align=left;verticalAlign=middle;spacingLeft=4;spacingRight=4;overflow=hidden;points=[[0,0.5],[1,0.5]];portConstraint=eastwest;rotatable=0;whiteSpace=wrap;html=1;" vertex="1" parent="5dmT34geTn2vT_JNvffS-124">
          <mxGeometry y="150" width="100" height="30" as="geometry" />
        </mxCell>
        <mxCell id="5dmT34geTn2vT_JNvffS-130" value="11111 (-1)" style="text;strokeColor=none;fillColor=none;align=left;verticalAlign=middle;spacingLeft=4;spacingRight=4;overflow=hidden;points=[[0,0.5],[1,0.5]];portConstraint=eastwest;rotatable=0;whiteSpace=wrap;html=1;" vertex="1" parent="5dmT34geTn2vT_JNvffS-124">
          <mxGeometry y="180" width="100" height="30" as="geometry" />
        </mxCell>
        <mxCell id="5dmT34geTn2vT_JNvffS-145" style="edgeStyle=orthogonalEdgeStyle;rounded=0;orthogonalLoop=1;jettySize=auto;html=1;" edge="1" parent="1" source="5dmT34geTn2vT_JNvffS-131" target="5dmT34geTn2vT_JNvffS-127">
          <mxGeometry relative="1" as="geometry" />
        </mxCell>
        <mxCell id="5dmT34geTn2vT_JNvffS-131" value="comp a 2" style="text;html=1;align=center;verticalAlign=middle;whiteSpace=wrap;rounded=0;" vertex="1" parent="1">
          <mxGeometry x="833.25" y="715" width="54" height="20" as="geometry" />
        </mxCell>
        <mxCell id="5dmT34geTn2vT_JNvffS-132" value="" style="endArrow=classic;html=1;rounded=0;" edge="1" parent="1">
          <mxGeometry width="50" height="50" relative="1" as="geometry">
            <mxPoint x="653.75" y="635" as="sourcePoint" />
            <mxPoint x="707.25" y="634.6" as="targetPoint" />
          </mxGeometry>
        </mxCell>
        <mxCell id="5dmT34geTn2vT_JNvffS-133" value="" style="endArrow=none;html=1;rounded=0;" edge="1" parent="1">
          <mxGeometry width="50" height="50" relative="1" as="geometry">
            <mxPoint x="653.75" y="635" as="sourcePoint" />
            <mxPoint x="654.75" y="475" as="targetPoint" />
          </mxGeometry>
        </mxCell>
        <mxCell id="5dmT34geTn2vT_JNvffS-134" value="" style="endArrow=none;html=1;rounded=0;" edge="1" parent="1">
          <mxGeometry width="50" height="50" relative="1" as="geometry">
            <mxPoint x="654.75" y="475" as="sourcePoint" />
            <mxPoint x="704.75" y="475.28999999999996" as="targetPoint" />
          </mxGeometry>
        </mxCell>
        <mxCell id="5dmT34geTn2vT_JNvffS-135" style="edgeStyle=orthogonalEdgeStyle;rounded=0;orthogonalLoop=1;jettySize=auto;html=1;" edge="1" parent="1" target="5dmT34geTn2vT_JNvffS-124">
          <mxGeometry relative="1" as="geometry">
            <mxPoint x="905.75" y="587.5" as="targetPoint" />
            <mxPoint x="706.7500000000002" y="509.98275862068965" as="sourcePoint" />
            <Array as="points">
              <mxPoint x="685.75" y="510" />
              <mxPoint x="685.75" y="605" />
              <mxPoint x="823.75" y="605" />
              <mxPoint x="823.75" y="635" />
            </Array>
          </mxGeometry>
        </mxCell>
        <mxCell id="5dmT34geTn2vT_JNvffS-138" value="Caratteristiche" style="swimlane;fontStyle=0;childLayout=stackLayout;horizontal=1;startSize=30;horizontalStack=0;resizeParent=1;resizeParentMax=0;resizeLast=0;collapsible=1;marginBottom=0;whiteSpace=wrap;html=1;" vertex="1" parent="1">
          <mxGeometry x="707.25" y="860" width="298" height="120" as="geometry" />
        </mxCell>
        <mxCell id="5dmT34geTn2vT_JNvffS-139" value="Numeri positivi hanno l&#39;MSB a 0, quelli negativi 1" style="text;strokeColor=none;fillColor=none;align=left;verticalAlign=middle;spacingLeft=4;spacingRight=4;overflow=hidden;points=[[0,0.5],[1,0.5]];portConstraint=eastwest;rotatable=0;whiteSpace=wrap;html=1;" vertex="1" parent="5dmT34geTn2vT_JNvffS-138">
          <mxGeometry y="30" width="298" height="30" as="geometry" />
        </mxCell>
        <mxCell id="5dmT34geTn2vT_JNvffS-140" value="Intervallo: [-2&lt;sup&gt;n-1&lt;/sup&gt;,+2&lt;sup&gt;n-1&lt;/sup&gt;-1]" style="text;strokeColor=none;fillColor=none;align=left;verticalAlign=middle;spacingLeft=4;spacingRight=4;overflow=hidden;points=[[0,0.5],[1,0.5]];portConstraint=eastwest;rotatable=0;whiteSpace=wrap;html=1;" vertex="1" parent="5dmT34geTn2vT_JNvffS-138">
          <mxGeometry y="60" width="298" height="30" as="geometry" />
        </mxCell>
        <mxCell id="5dmT34geTn2vT_JNvffS-141" value="Intervallo asimmetrico con un solo 0" style="text;strokeColor=none;fillColor=none;align=left;verticalAlign=middle;spacingLeft=4;spacingRight=4;overflow=hidden;points=[[0,0.5],[1,0.5]];portConstraint=eastwest;rotatable=0;whiteSpace=wrap;html=1;" vertex="1" parent="5dmT34geTn2vT_JNvffS-138">
          <mxGeometry y="90" width="298" height="30" as="geometry" />
        </mxCell>
        <mxCell id="5dmT34geTn2vT_JNvffS-144" style="edgeStyle=orthogonalEdgeStyle;rounded=0;orthogonalLoop=1;jettySize=auto;html=1;entryX=0;entryY=0.5;entryDx=0;entryDy=0;" edge="1" parent="1" source="5dmT34geTn2vT_JNvffS-120" target="5dmT34geTn2vT_JNvffS-131">
          <mxGeometry relative="1" as="geometry" />
        </mxCell>
        <mxCell id="5dmT34geTn2vT_JNvffS-149" value="Eccesso 2 (n-1)" style="rounded=0;whiteSpace=wrap;html=1;" vertex="1" parent="1">
          <mxGeometry x="1320" y="130" width="160" height="30" as="geometry" />
        </mxCell>
        <mxCell id="5dmT34geTn2vT_JNvffS-150" value="1a Regola" style="rounded=0;whiteSpace=wrap;html=1;" vertex="1" parent="1">
          <mxGeometry x="1190" y="200" width="90" height="30" as="geometry" />
        </mxCell>
        <mxCell id="5dmT34geTn2vT_JNvffS-151" value="2a Regola" style="rounded=0;whiteSpace=wrap;html=1;" vertex="1" parent="1">
          <mxGeometry x="1520" y="200" width="90" height="30" as="geometry" />
        </mxCell>
        <mxCell id="5dmT34geTn2vT_JNvffS-152" value="(comoda se si hanno gia&#39; i numeri in CA2)" style="text;html=1;align=center;verticalAlign=middle;whiteSpace=wrap;rounded=0;fontSize=10;" vertex="1" parent="1">
          <mxGeometry x="1128" y="170" width="225" height="30" as="geometry" />
        </mxCell>
        <mxCell id="5dmT34geTn2vT_JNvffS-156" value="Caratteristiche" style="swimlane;fontStyle=0;childLayout=stackLayout;horizontal=1;startSize=30;horizontalStack=0;resizeParent=1;resizeParentMax=0;resizeLast=0;collapsible=1;marginBottom=0;whiteSpace=wrap;html=1;" vertex="1" parent="1">
          <mxGeometry x="1251" y="320" width="298" height="90" as="geometry" />
        </mxCell>
        <mxCell id="5dmT34geTn2vT_JNvffS-158" value="Intervallo: [-2&lt;sup&gt;n-1&lt;/sup&gt;,+2&lt;sup&gt;n-1&lt;/sup&gt;-1]" style="text;strokeColor=none;fillColor=none;align=left;verticalAlign=middle;spacingLeft=4;spacingRight=4;overflow=hidden;points=[[0,0.5],[1,0.5]];portConstraint=eastwest;rotatable=0;whiteSpace=wrap;html=1;" vertex="1" parent="5dmT34geTn2vT_JNvffS-156">
          <mxGeometry y="30" width="298" height="30" as="geometry" />
        </mxCell>
        <mxCell id="5dmT34geTn2vT_JNvffS-159" value="Intervallo asimmetrico con un solo 0" style="text;strokeColor=none;fillColor=none;align=left;verticalAlign=middle;spacingLeft=4;spacingRight=4;overflow=hidden;points=[[0,0.5],[1,0.5]];portConstraint=eastwest;rotatable=0;whiteSpace=wrap;html=1;" vertex="1" parent="5dmT34geTn2vT_JNvffS-156">
          <mxGeometry y="60" width="298" height="30" as="geometry" />
        </mxCell>
        <mxCell id="5dmT34geTn2vT_JNvffS-160" value="&lt;div style=&quot;&quot;&gt;&lt;span style=&quot;background-color: initial;&quot;&gt;Spiegazione veloce:&lt;/span&gt;&lt;/div&gt;Se N&lt;sub&gt;d&amp;nbsp;&lt;/sub&gt;&amp;lt; 0: e inverto i bit (1 = 0; 0 = 1)&lt;br&gt;&lt;div&gt;&lt;br&gt;&lt;/div&gt;" style="text;html=1;align=left;verticalAlign=middle;whiteSpace=wrap;rounded=0;" vertex="1" parent="1">
          <mxGeometry x="269.68" y="260" width="202.63" height="20" as="geometry" />
        </mxCell>
        <mxCell id="5dmT34geTn2vT_JNvffS-162" value="" style="shape=ellipse;fillColor=#000000;strokeColor=none;html=1;sketch=0;fontColor=#000000;" vertex="1" parent="1">
          <mxGeometry x="1183" y="252.5" width="10" height="10" as="geometry" />
        </mxCell>
        <mxCell id="5dmT34geTn2vT_JNvffS-163" value="Complemento a 2" style="text;html=1;align=center;verticalAlign=middle;whiteSpace=wrap;rounded=0;" vertex="1" parent="1">
          <mxGeometry x="1199" y="250" width="98" height="15" as="geometry" />
        </mxCell>
        <mxCell id="5dmT34geTn2vT_JNvffS-164" value="" style="shape=ellipse;fillColor=#000000;strokeColor=none;html=1;sketch=0;fontColor=#000000;" vertex="1" parent="1">
          <mxGeometry x="1183" y="282.5" width="10" height="10" as="geometry" />
        </mxCell>
        <mxCell id="5dmT34geTn2vT_JNvffS-165" value="Invertire l&#39;SMB" style="text;html=1;align=center;verticalAlign=middle;whiteSpace=wrap;rounded=0;" vertex="1" parent="1">
          <mxGeometry x="1199" y="280" width="81" height="15" as="geometry" />
        </mxCell>
        <mxCell id="5dmT34geTn2vT_JNvffS-166" value="&lt;div style=&quot;&quot;&gt;&lt;span style=&quot;background-color: initial;&quot;&gt;Spiegazione veloce:&lt;/span&gt;&lt;/div&gt;Se N&lt;sub&gt;d&amp;nbsp;&lt;/sub&gt;&amp;lt; 0: e inverto i bit (1 = 0; 0 = 1) e sommo 1&lt;sub&gt;2&lt;/sub&gt;&lt;br&gt;&lt;div&gt;&lt;br&gt;&lt;/div&gt;" style="text;html=1;align=left;verticalAlign=middle;whiteSpace=wrap;rounded=0;" vertex="1" parent="1">
          <mxGeometry x="767.19" y="260" width="272.81" height="20" as="geometry" />
        </mxCell>
        <mxCell id="5dmT34geTn2vT_JNvffS-167" value="" style="shape=ellipse;fillColor=#000000;strokeColor=none;html=1;sketch=0;fontColor=#000000;" vertex="1" parent="1">
          <mxGeometry x="1496" y="250" width="10" height="10" as="geometry" />
        </mxCell>
        <mxCell id="5dmT34geTn2vT_JNvffS-168" value="Sommo 2&lt;sup&gt;n-1&lt;/sup&gt; a N&lt;sub&gt;d&lt;/sub&gt;" style="text;html=1;align=center;verticalAlign=middle;whiteSpace=wrap;rounded=0;" vertex="1" parent="1">
          <mxGeometry x="1512" y="247.5" width="108" height="15" as="geometry" />
        </mxCell>
        <mxCell id="5dmT34geTn2vT_JNvffS-169" value="" style="shape=ellipse;fillColor=#000000;strokeColor=none;html=1;sketch=0;fontColor=#000000;" vertex="1" parent="1">
          <mxGeometry x="1496" y="280" width="10" height="10" as="geometry" />
        </mxCell>
        <mxCell id="5dmT34geTn2vT_JNvffS-170" value="Converto in binario" style="text;html=1;align=center;verticalAlign=middle;whiteSpace=wrap;rounded=0;" vertex="1" parent="1">
          <mxGeometry x="1512" y="277.5" width="108" height="15" as="geometry" />
        </mxCell>
      </root>
    </mxGraphModel>
  </diagram>
</mxfile>
